<?xml version="1.0" encoding="UTF-8"?>
<svg version="1.1" viewBox="0 0 1551 1551" width="1551" height="1551" xmlns="http://www.w3.org/2000/svg">
<path transform="translate(625,300)" d="m0 0h57l39 3 23 3h8l29-4 33-2h48l43 3 44 6 33 6 52 13 49 16 34 13 33 15 29 14 29 16 25 15 25 16 17 12 18 13 17 13 11 9 14 12 12 11 8 7 40 40 7 8 12 14 11 13 26 34 16 23 13 20 15 25 14 25 12 23 13 28 13 32 4 10v2h-2l-13-28-11-23-15-29-16-27-15-24-11-16-13-18-12-16-14-17-12-14-9-10-7-8-11-11-7-8-16-15-17-16-11-9-14-12-17-13-20-15-30-20-19-12-23-13-22-12-33-16-36-15-27-10-37-12-37-10-27-6-38-7-39-5h-5l30 11 29 13 25 12 27 14 22 13 26 17 29 11 36 16 28 14 24 14 20 12 28 19 19 14 17 14 11 9 13 12 8 7 17 16 7 7 7 8 7 7 7 8 12 14 9 11 14 18 12 17 18 27 15 25 13 23 4 8 4 15v23l-4 16-8 16-9 11-9 8-11 7-13 5-16 3h-14l-15-3-16-7-11-8-8-7-8-10-8-16-16-45-14-33-14-29-13-25-15-25-20-30-12-16-14-18-24-28-11-11-7-8-11-11-8-7-15-14-11-9-17-14-19-14-7-4-36-12-30-8-30-7-33-6-39-5-27-2h-72l-35 3-42 6-34 7-44 12-26 9-30 12-20 9-25 12-23 12-17 10-21 13-19 13-18 13-14 11-16 13-14 12-13 12-10 10-8 7-11 12-8 8-7 8-13 15-11 14-14 18-12 17-12 18-13 21-10 18-12 23-8 16-1-4 13-32 16-33 12-23 15-25 14-21 10-14 12-16 11-14 12-14 9-10 7-8 39-39 8-7 14-12 16-13 19-14 18-13 25-16 24-14 23-12 16-8 19-9 32-13 25-9 32-10 40-10 33-6 32-4 23-2 20-1h36l41 2-37-11-24-6-24-5-24-4-32-3h-38l-31 3-25 4-32 8-25 8-27 10-30 13-29 14-23 12-24 14-19 11-33 22-14 10-12 9-13 10-17 14-15 13-10 9-13 12-22 22-7 8-12 13-9 11-12 14-12 16-13 18-14 20-13 21-14 24-12 22-11 21-24 54-7 11-10 11-13 9-16 7-15 3h-18l-14-3-16-8-9-6-6-5-11-14-7-15-3-11v-30l5-16 11-26 12-26 14-28 13-23 16-26 11-16 13-18 13-17 12-14 9-11 15-16 9-10 23-23 8-7 15-14 11-9 11-10 14-11 18-14 20-14 17-11 21-13 24-13 19-10 26-12 27-11 28-10 40-12 39-9 35-6 42-5zm-77 55-37 7-28 7-35 11-27 10-26 11-27 13-22 12-29 17-25 17-14 10-13 10-14 11-14 12-8 7-12 11-16 15-13 13-7 8-12 13-9 11-11 13-15 20-12 17-10 15-13 21-12 21-12 23-12 25-11 27-4 13 1 10 5 10 8 7 9 4h14l12-6 6-7 11-24 11-23 14-28 13-23 14-23 22-33 12-17 13-17 11-14 11-13 9-11 15-16 11-12 28-28 8-7 13-12 11-9 13-11 17-13 19-14 23-16 20-12 13-8 25-14 36-18 34-14 22-8zm670 195m1 1m1 1 3 5 12 15 14 19 22 33 15 25 10 18 12 23 10 21 13 31 11 30 7 19 6 8 8 6 6 2h13l8-3 8-6 5-8 2-7v-11l-4-10-14-25-14-23-15-22-14-19-11-14-24-28-8-8-7-8-14-14-8-7-14-13-11-9-17-14-8-6z" fill="#E62A32"/>
<path transform="translate(666,488)" d="m0 0h308l10 1 10 8 3 5 2 7v313l-3 9-6 7-8 5h-320l-10-6-1-4-3-1-2-4-2-10v-176l-1-4v-36l1-4-1-13v-18l1-4v-46l2-12 3-6 11-10z" fill="#47BCF1"/>
<path transform="translate(820,530)" d="m0 0 7 1 7 8 5 4 6 7v2l5 2 8 10 5 3 8 10 4 2 8 10 4 2 2 5 4 2 4 4v-12l3-5h28l3 5v48l4 2 10 10 4 5 5 4 12 12v7l-2 2h-33v102l-4 2h-100l6-7 5-4 7-8 2-1h21l5 5 2 1h6l5-5v-9l-1-2-4-2h-7l-5 1v4l-25 1-5 5-5 4-5 5-2 1v-23l6-5 7-8 8-8h39l5 5h8l4-4v-11l-7-3-5 1-4 2-1 3h-30l2-4 10-10 4-3h2l1-4 1-20 7-8 7-6 10-2 3-3v-12l-6-2-7 1-3 2-1 9v2l-5 4-4 4h-1v-32l3-1 2-5-1-6-2-4-2-1h-8l-5 5v7l5 5v31l-5-3-1-4h-2l-1-9-4-4-2-1h-6l-5 2-1 10v2h2l1 4h11l7 7v2l4 2 2 2v21l-9 9h-2l-2 4-5 4v-15l3-3h2v-10l-5-5h-8l-3 2-2 8 3 6 3 2v22l-13 13-4 3v-104l4-4h2l2-4 4-2 2-4h10v-2l3-3v-8l-3-3v-2h-9l-5 5-1 10-10 9-4 3-5-5-4-5-4-3v-8l-4-5-2-1h-6l-6 5v8l4 4 2 1h7l7 6 7 8 1 1v74l-5-4v-2l-4-2-2-4-4-2-2-4-4-2-2-4h-2v-23h2v-2l3-3v-8l-4-4-6-1-5 1-1 3h-2v8l1 4h2v2l3 1v14l-3-2v-2l-4-2-5-5-4-5-5-4v-21l5-3v-13l-3-1h-10l-3 2-1 9 3 5 3 1 1 26 5 4 5 5 9 10v1h-13l-5-5h-7l-5 2-1 9v3l4 2 7 2 6-2 1-4h22l6 6v2l4 2 8 8v2l4 2 7 7 1 2v52l-5-3-3-5-8-7v-22l5-2 1-8-3-6-4-2-9 1-2 4v11l5 2v14l-6-4-3-5-3-2v-2l-4-2-5-5-3-2v-12l-4-1-3-2-7 1-4 4v8l4 4 9 2 5 3 5 5 3 5 4 2 5 5 1 4h-12l-5-5-7-1-6 2-1 8 3 7 2 1h8l3-1 2-4h22l10 10 5 4 4 6h-100l-4-1-1-2v-101h-32l-3-5 2-5 6-5 1-3 11-9 7-8 26-26h2l2-4z" fill="#FEFEFE"/>
<path transform="translate(756,683)" d="m0 0 5 1 1 1v5l-2 2-5-1-1-1v-5z" fill="#FEFEFE"/>
<path transform="translate(761,719)" d="m0 0 5 1v7l-1 1h-5l-1-6z" fill="#FEFEFE"/>
<path transform="translate(894,721)" d="m0 0h5l1 5-1 3h-6l-1-6z" fill="#FEFEFE"/>
<path transform="translate(788,651)" d="m0 0 4 1 2 5-3 3-5-2v-5z" fill="#FEFEFE"/>
<path transform="translate(870,626)" d="m0 0h6l2 5-2 2-7-1v-5z" fill="#FEFEFE"/>
<path transform="translate(843,609)" d="m0 0h5l1 6-2 2-5-1-1-5z" fill="#FEFEFE"/>
<path transform="translate(766,757)" d="m0 0 6 1v5l-2 2-5-1-1-5z" fill="#FEFEFE"/>
<path transform="translate(845,689)" d="m0 0 5 1 1 5-2 2-5-1-1-5z" fill="#FEFEFE"/>
<path transform="translate(893,653)" d="m0 0h6l1 5-2 3h-5l-1-5z" fill="#FEFEFE"/>
<path transform="translate(798,609)" d="m0 0 5 1 1 4-2 3-5-1-1-5z" fill="#FEFEFE"/>
<path transform="translate(849,653)" d="m0 0 5 1 1 5-2 2-5-1-1-4z" fill="#FEFEFE"/>
<path transform="translate(760,625)" d="m0 0 6 1v6l-5 1-2-1v-6z" fill="#FEFEFE"/>
<path transform="translate(797,725)" d="m0 0h5l1 6-1 2-5-1-1-1v-5z" fill="#FEFEFE"/>
<path transform="translate(877,756)" d="m0 0 4 1v6l-4 2-3-3 1-5z" fill="#FEFEFE"/>
<path transform="translate(1,470)" d="m0 0h1v17h-1z" fill="#E62A32"/>
</svg>
